<?xml version="1.0" encoding="UTF-8"?>
<svg id="b" data-name="Layer 2" xmlns="http://www.w3.org/2000/svg" viewBox="0 0 76 76">
  <defs>
    <style>
      .d {
        fill: #fff;
      }

      .e {
        fill: #427da5;
      }
    </style>
  </defs>
  <g id="c" data-name="Layer 1">
    <g>
      <circle class="e" cx="38" cy="38" r="38"/>
      <path class="d" d="M58.61,47.78v-10c0-2.23-1.81-4.05-4.05-4.05h-15.82v-12.56c3.03-.37,5.39-2.95,5.39-6.09,0-3.39-2.76-6.13-6.13-6.13s-6.13,2.76-6.13,6.13c0,3.13,2.36,5.72,5.39,6.09v12.56h-15.82c-2.23,0-4.05,1.81-4.05,4.05v10c-3.03,.37-5.39,2.95-5.39,6.09,0,3.39,2.76,6.13,6.13,6.13s6.13-2.76,6.13-6.13c0-3.13-2.36-5.72-5.39-6.09v-10c0-1.41,1.14-2.56,2.56-2.56h15.82v12.56c-3.03,.37-5.39,2.95-5.39,6.09,0,3.39,2.76,6.13,6.13,6.13s6.13-2.76,6.13-6.13c0-3.13-2.36-5.72-5.39-6.09v-12.56h15.82c1.41,0,2.56,1.14,2.56,2.56v10c-3.03,.37-5.39,2.95-5.39,6.09,0,3.39,2.76,6.13,6.13,6.13s6.13-2.76,6.13-6.13c0-3.14-2.36-5.72-5.39-6.09Z"/>
    </g>
  </g>
</svg>